<svg width="180" height="40" viewBox="0 0 180 40" fill="none" xmlns="http://www.w3.org/2000/svg">
  <rect width="40" height="40" rx="9" fill="#2563EB"/>
  <path d="M11 29V11h10.6C26.4 11 30 14.2 30 18.7C30 23.2 26.4 26.3 21.6 26.3h-5.5V29H11Zm5.1-7.2h5.2c2 0 3.3-1.1 3.3-3.1s-1.3-3.1-3.3-3.1h-5.2v6.2Z" fill="white"/>
  <path d="M55.4 14.7h8.2c4.1 0 6.7 2.5 6.7 6.2s-2.6 6.2-6.7 6.2h-4.3V34h-3.9V14.7Zm7.8 9.1c2 0 3.1-1.1 3.1-2.9S65.2 18 63.2 18h-3.9v5.8h3.9Zm11.5-3.1h3.6v2.1c.8-1.5 2.1-2.3 3.9-2.3h.8v3.6h-1.1c-2.2 0-3.6 1.2-3.6 3.8V34h-3.6V20.7Zm10.6 6.7c0-4.1 2.8-7 6.5-7c2 0 3.5.8 4.4 2v-1.7h3.6V34h-3.6v-1.7c-.9 1.2-2.4 2-4.4 2c-3.7 0-6.5-2.9-6.5-6.9Zm10.9 0c0-2.2-1.5-3.8-3.6-3.8S89 25.2 89 27.4s1.5 3.8 3.6 3.8 3.6-1.6 3.6-3.8Zm8.2-6.7h3.6v1.7c.9-1.2 2.3-2 4.1-2 3.1 0 5.2 2.2 5.2 5.7V34h-3.6v-7.3c0-1.9-1-3-2.7-3-1.8 0-3 1.2-3 3.4V34h-3.6V20.7Zm16.6 6.7c0-4.1 2.8-7 6.5-7 2 0 3.5.8 4.4 2v-1.7h3.6V34h-3.6v-1.7c-.9 1.2-2.4 2-4.4 2-3.7 0-6.5-2.9-6.5-6.9Zm10.9 0c0-2.2-1.5-3.8-3.6-3.8s-3.6 1.6-3.6 3.8 1.5 3.8 3.6 3.8 3.6-1.6 3.6-3.8Zm8.2-12.7h3.6v7.7c.9-1.2 2.3-2 4.1-2 3.1 0 5.2 2.2 5.2 5.7V34h-3.6v-7.3c0-1.9-1-3-2.7-3-1.8 0-3 1.2-3 3.4V34h-3.6V14.7Z" fill="#111111"/>
</svg>
